<svg width="100" height="24" viewBox="0 0 100 24" fill="none" xmlns="http://www.w3.org/2000/svg">
<g clip-path="url(#clip0_227_106)">
<circle cx="28" cy="6" r="6" fill="#251919"/>
<path d="M80 8C80 10.2091 78.2091 12 76 12H71C69.3431 12 68 13.3431 68 15V15C68 16.6569 69.3431 18 71 18H77C78.6569 18 80 19.3431 80 21V21C80 22.6569 78.6569 24 77 24H66C63.7909 24 62 22.2091 62 20V4C62 1.79086 63.7909 0 66 0H76C78.2091 0 80 1.79086 80 4V8Z" fill="#251919"/>
<path d="M88 9C88 10.6569 89.3431 12 91 12V12C92.6569 12 94 10.6569 94 9V3C94 1.34315 95.3431 0 97 0V0C98.6569 0 100 1.34315 100 3V21C100 22.6569 98.6569 24 97 24V24C95.3431 24 94 22.6569 94 21V21C94 19.3431 92.6569 18 91 18V18C89.3431 18 88 19.3431 88 21V21C88 22.6569 86.6569 24 85 24V24C83.3431 24 82 22.6569 82 21V3C82 1.34315 83.3431 0 85 0V0C86.6569 0 88 1.34315 88 3V9Z" fill="#251919"/>
<path d="M20 3.69471C20 4.58321 19.6798 5.44195 19.0981 6.11357L16.268 9.38128C14.9662 10.8844 14.9662 13.1156 16.268 14.6187L19.0981 17.8864C19.6798 18.5581 20 19.4168 20 20.3053V20.3053C20 22.3458 18.3458 24 16.3053 24H4C1.79086 24 0 22.2091 0 20V4C0 1.79086 1.79086 0 4 0H16.3053C18.3458 0 20 1.65418 20 3.69471V3.69471Z" fill="#251919"/>
<path d="M42 23V13C42 12.4477 42.4477 12 43 12H44.2192C44.6781 12 45.0781 12.3123 45.1894 12.7575L47.8106 23.2425C47.9219 23.6877 48.3219 24 48.7808 24H57.5858C58.4767 24 58.9229 22.9229 58.2929 22.2929L51.9346 15.9346C51.1461 15.1461 52.0447 13.8538 53.0583 14.3184L58.5833 16.8507C59.2457 17.1543 60 16.6703 60 15.9416V12.7808C60 12.3219 59.6877 11.9219 59.2425 11.8106L48.7575 9.18937C48.3123 9.07807 48 8.67809 48 8.21922V7C48 6.44772 48.4477 6 49 6H59C59.5523 6 60 5.55228 60 5V1C60 0.447715 59.5523 0 59 0H37C36.4477 0 36 0.447716 36 1V23C36 23.5523 36.4477 24 37 24H41C41.5523 24 42 23.5523 42 23Z" fill="#251919"/>
</g>
<defs>
<clipPath id="clip0_227_106">
<rect width="100" height="24" fill="white"/>
</clipPath>
</defs>
</svg>
